<?xml version="1.0" standalone="no"?><!DOCTYPE svg PUBLIC "-//W3C//DTD SVG 1.1//EN" "http://www.w3.org/Graphics/SVG/1.1/DTD/svg11.dtd"><svg t="1653988012890" class="icon" viewBox="0 0 1024 1024" version="1.1" xmlns="http://www.w3.org/2000/svg" p-id="7373" xmlns:xlink="http://www.w3.org/1999/xlink" width="200" height="200"><defs><style type="text/css">@font-face { font-family: feedback-iconfont; src: url("//at.alicdn.com/t/font_1031158_u69w8yhxdu.woff2?t=1630033759944") format("woff2"), url("//at.alicdn.com/t/font_1031158_u69w8yhxdu.woff?t=1630033759944") format("woff"), url("//at.alicdn.com/t/font_1031158_u69w8yhxdu.ttf?t=1630033759944") format("truetype"); }
</style></defs><path d="M128 21.333333v981.333334c0 11.733333 9.6 21.333333 21.333333 21.333333h725.333334c11.733333 0 21.333333-9.6 21.333333-21.333333V298.666667H661.333333c-11.733333 0-21.333333-9.6-21.333333-21.333334V0H149.333333C137.6 0 128 9.6 128 21.333333z" fill="#999999" p-id="7374"></path><path d="M894.933333 256c-1.066667-4.266667-2.133333-7.466667-4.266666-10.666667L682.666667 12.8V256h212.266666z" fill="#999999" p-id="7375"></path><path d="M192 437.333333h640v522.666667H192z m30.933333-279.466666L184.533333 68.266667h38.4L234.666667 104.533333c3.2 10.666667 5.333333 22.4 5.333333 22.4h1.066667s2.133333-11.733333 5.333333-22.4l11.733333-36.266666h38.4l-38.4 89.6v62.933333H222.933333v-62.933333z m102.4-89.6h38.4l13.866667 64c2.133333 9.6 4.266667 25.6 4.266667 25.6h1.066666s2.133333-16 4.266667-25.6l13.866667-64h38.4l9.6 152.533333h-32l-4.266667-68.266667c-1.066667-11.733333 0-25.6 0-25.6h-1.066667s-2.133333 16-4.266666 25.6l-9.6 43.733334h-34.133334l-9.6-43.733334c-2.133333-9.6-4.266667-25.6-4.266666-25.6h-1.066667s1.066667 13.866667 0 25.6l-4.266667 68.266667h-32l12.8-152.533333z m160 0h35.2v121.6h45.866667v30.933333h-81.066667V68.266667z" fill="#FFFFFF" p-id="7376"></path><path d="M277.333333 521.6h394.666667v45.866667H277.333333z m74.666667 102.4h394.666667v45.866667H352z m-74.666667 102.4h394.666667v45.866667H277.333333z m74.666667 102.4h394.666667V874.666667H352z" fill="#999999" p-id="7377"></path></svg>